HIERARCHY
ROOT ui
{
	 OFFSET 0 0 0
	 CHANNELS 3 XPosition YPosition Z Position
	 EndSite
	 {
	 OFFSET 0 -1 0
	 }
}
ROOT li
{
	 OFFSET 0 0 0
	 CHANNELS 3 XPosition YPosition Z Position
	 EndSite
	 {
	 OFFSET 0 -1 0
	 }
}
ROOT ul
{
	 OFFSET 0 0 0
	 CHANNELS 3 XPosition YPosition Z Position
	 EndSite
	 {
	 OFFSET 0 -1 0
	 }
}
ROOT ll
{
	 OFFSET 0 0 0
	 CHANNELS 3 XPosition YPosition Z Position
	 EndSite
	 {
	 OFFSET 0 -1 0
	 }
}
ROOT tt
{
	 OFFSET 0 0 0
	 CHANNELS 3 XPosition YPosition Z Position
	 EndSite
	 {
	 OFFSET 0 -1 0
	 }
}
ROOT tb
{
	 OFFSET 0 0 0
	 CHANNELS 3 XPosition YPosition Z Position
	 EndSite
	 {
	 OFFSET 0 -1 0
	 }
}
ROOT td
{
	 OFFSET 0 0 0
	 CHANNELS 3 XPosition YPosition Z Position
	 EndSite
	 {
	 OFFSET 0 -1 0
	 }
}
ROOT v
{
	 OFFSET 0 0 0
	 CHANNELS 3 XPosition YPosition Z Position
	 EndSite
	 {
	 OFFSET 0 -1 0
	 }
}
ROOT bn
{
	 OFFSET 0 0 0
	 CHANNELS 3 XPosition YPosition Z Position
	 EndSite
	 {
	 OFFSET 0 -1 0
	 }
}
MOTION
Frames: 13
Frame Time: 0.002
0.01571742630004883	-0.006564438819885254	0		0.5574037475585938	-2.491403564453125	0		-1.110826904296875	-0.027893228530883787	0		-0.5958482666015625	-2.610281005859375	0		2.0883359375	-1.4779859619140625	0		3.367345947265625	-0.28614138793945315	0		4.857681640625	0.349927734375	0		6.04558447265625	0.6615333862304688	0		-0.210091796875	5.96128955078125	0		
-0.0050434889793395995	0.008879897117614746	0		0.54953564453125	-2.480193603515625	0		-1.0236920166015624	-0.019319833755493163	0		-0.526027099609375	-2.617415283203125	0		2.09241064453125	-1.4710068359375	0		3.34665087890625	-0.2667452392578125	0		4.8627998046875	0.35785000610351564	0		6.0372958984375	0.7016680297851563	0		-0.2110157775878906	5.9623896484375	0		
0.01378664493560791	0.0016355960369110107	0		0.5972815551757813	-2.49095068359375	0		-1.0274388427734376	-0.002154362916946411	0		-0.5691813354492188	-2.62156982421875	0		2.049548828125	-1.4591925048828125	0		3.304330078125	-0.28195806884765623	0		4.8478837890625	0.365144775390625	0		6.02372802734375	0.7040069580078125	0		-0.22615007019042968	5.9537421875	0		
-0.011273021697998048	0.002166724920272827	0		0.5931126098632813	-2.49579052734375	0		-1.0156792602539062	-0.012261325836181641	0		-0.5045018310546875	-2.63560693359375	0		2.042475341796875	-1.4589915771484374	0		3.325296142578125	-0.28025665283203127	0		4.84471826171875	0.3592557983398437	0		6.02070654296875	0.6869144287109376	0		-0.2744592590332031	5.93768017578125	0		
-0.015408018112182616	-6.62913978099823E-4	0		0.5519740600585937	-2.49797509765625	0		-1.085681640625	-0.006933294773101807	0		-0.545640869140625	-2.637787353515625	0		2.0264769287109377	-1.453619873046875	0		3.321125244140625	-0.2850982666015625	0		4.83463818359375	0.3595128479003906	0		6.02362451171875	0.7042247314453125	0		-0.22623037719726563	5.9539384765625	0		
0.010485621452331543	-0.0010132880210876464	0		0.5617137451171875	-2.507043701171875	0		-0.9996221923828125	0.0016643110513687135	0		-0.5339014282226563	-2.6468916015625	0		2.0126572265625	-1.4372718505859374	0		3.302288330078125	-0.26966195678710936	0		4.820677734375	0.3678634033203125	0		6.03067138671875	0.7023778686523438	0		-0.22633537292480468	5.95404296875	0		
-0.011578356742858887	0.0024792850017547607	0		0.5548345336914062	-2.4938125	0		-1.0574532470703124	0.01877986717224121	0		-0.5478839111328125	-2.639542236328125	0		2.0056854248046876	-1.4290328369140626	0		3.2889443359375	-0.28230853271484374	0		4.82031103515625	0.35399685668945313	0		6.0305849609375	0.7026156616210938	0		-0.09610138702392577	5.9748720703125	0		
0.010231032371520996	-7.949230074882507E-4	0		0.60050537109375	-2.506499755859375	0		-0.9826171264648438	0.01656913375854492	0		-0.48830126953125	-2.657483642578125	0		1.9778126220703125	-1.4144171142578126	0		3.29989794921875	-0.27736184692382815	0		4.802193359375	0.355465087890625	0		6.02336865234375	0.7049336547851562	0		-0.2428448028564453	5.94453955078125	0		
-0.01591187381744385	-2.29761004447937E-4	0		0.5474503173828125	-2.5024560546875	0		-1.050456787109375	0.03485321044921875	0		-0.4935190734863281	-2.663290771484375	0		1.937986572265625	-1.3965853271484374	0		3.246780029296875	-0.2752839660644531	0		4.7840625	0.35695013427734373	0		6.0232626953125	0.7052566528320312	0		-0.277130615234375	5.94124169921875	0		
0.009928412437438965	-5.741810202598572E-4	0		0.5992367553710938	-2.5082451171875	0		-1.040632080078125	0.03377281951904297	0		-0.4997388305664062	-2.66908251953125	0		1.9050313720703125	-1.3858719482421875	0		3.239437255859375	-0.28600177001953125	0		4.77953515625	0.3362044677734375	0		6.02314990234375	0.7056039428710937	0		-0.2622203674316406	5.95008447265625	0		
-0.007247279167175293	-0.0011699919700622558	0		0.5591060180664063	-2.508429931640625	0		-1.0235518188476562	0.04756429672241211	0		-0.5121153564453125	-2.68377197265625	0		1.8703173828125	-1.361126220703125	0		3.251000244140625	-0.30204769897460937	0		4.75549462890625	0.3438084411621094	0		6.04211376953125	0.680932861328125	0		-0.22643280029296875	5.95255908203125	0		
0.020621217727661133	4.4533199071884153E-4	0		0.5880006713867187	-2.507822021484375	0		-1.0324520263671875	0.06280465316772461	0		-0.47728823852539065	-2.68728662109375	0		1.8256737060546875	-1.3322100830078125	0		3.220214111328125	-0.28035037231445314	0		4.74634521484375	0.34515167236328126	0		6.0302705078125	0.73716064453125	0		-0.22766371154785156	5.95467578125	0		
-0.012499349594116211	0.0031185739040374754	0		0.5490122680664062	-2.50003515625	0		-1.032613525390625	0.06288519287109375	0		-0.4963809814453125	-2.68586572265625	0		1.8098873291015625	-1.3118037109375	0		3.18368115234375	-0.30156488037109375	0		4.73383251953125	0.3255459899902344	0		6.03474853515625	0.6819549560546875	0		-0.2450831298828125	5.94606787109375	0		
